# xmcd CD database file
#
# Track frame offsets:
#	150
#	7302
#	23540
#	43962
#	64275
#	85832
#	95057
#	110720
#	130127
#	153657
#	172745
#
# Disc length: 2490 seconds
#
# Revision: 8
# Processed by: cddbd v1.5.2PL0 Copyright (c) Steve Scherf et al.
# Submitted via: CDex 1.51
#
DISCID=9209b80b
DTITLE=陳綺貞 - 還是會寂寞
DYEAR=2000
DGENRE=Pop
TTITLE0=越洋電話
TTITLE1=我的驕傲無可救藥
TTITLE2=還是會寂寞
TTITLE3=下午三點
TTITLE4=溫室花朵
TTITLE5=午餐的約會
TTITLE6=等待
TTITLE7=慢歌3
TTITLE8=告訴我
TTITLE9=慢歌1
TTITLE10=靈感
EXTD=YEAR: 2000
EXTT0=
EXTT1=
EXTT2=
EXTT3=
EXTT4=
EXTT5=
EXTT6=
EXTT7=
EXTT8=
EXTT9=
EXTT10=
PLAYORDER=
